<svg xmlns="http://www.w3.org/2000/svg" xmlns:xlink="http://www.w3.org/1999/xlink" version="1.1" x="0px" y="0px" viewBox="0 0 64 80" style="enable-background:new 0 0 64 64;" xml:space="preserve"><g><path d="M13,3H3v10h10.001L13,3z M11,9H9v2H7V9H5V7h2V5h2v2h2V9z"/><path d="M13,19H3v10h10.001L13,19z M11.707,26.293l-1.414,1.414L8,25.414l-2.293,2.293l-1.414-1.414L6.586,24l-2.293-2.293   l1.414-1.414L8,22.586l2.293-2.293l1.414,1.414L9.414,24L11.707,26.293z"/><path d="M29,19H19v10h10.001L29,19z M27,27h-6v-2h6V27z M27,23h-6v-2h6V23z"/><path d="M47.077,20.508C44.939,17.2,41.225,15,37,15c-2.557,0-4.977,0.802-7.005,2.275C30.592,17.622,31,18.261,31,19v7.586   L33.586,24h10L47.077,20.508z"/><path d="M43,33.875V26h-4v10.028C40.206,35.119,41.551,34.39,43,33.875z"/><path d="M26.443,15c-0.688,0.607-1.321,1.276-1.9,2h2.695c2.632-2.575,6.075-4,9.762-4c7.72,0,14,6.28,14,14   c0,2.117-0.488,4.191-1.409,6.087c0.686,0.073,1.352,0.206,2.008,0.368C52.512,31.403,53,29.24,53,27c0-8.822-7.178-16-16-16   c-2.066,0-4.078,0.417-6,1.201V13c0,1.103-0.897,2-2,2H26.443z"/><path d="M29,3H19v10h10.001L29,3z M27,9h-6V7h6V9z"/><path d="M29,31h-3.293c0.965,2.721,2.866,4.963,5.293,6.37v-7.956l-0.064,0.064C30.72,30.35,29.937,31,29,31z"/><path d="M33,38.288c0.978,0.348,2.009,0.569,3.074,0.651c0.291-0.383,0.6-0.75,0.926-1.102V26h-2.586L33,27.414V38.288z"/><path d="M49,27c0-1.647-0.334-3.218-0.938-4.648L45,25.414v7.888c0.764-0.156,1.554-0.235,2.355-0.27   C48.428,31.196,49,29.123,49,27z"/><path d="M23.05,38.364L20.414,41L23,43.586l2.632-2.632C24.683,40.183,23.823,39.312,23.05,38.364z"/><path d="M48,39c-4.963,0-9,4.038-9,9s4.037,9,9,9s9-4.038,9-9S52.963,39,48,39z M48,47c1.654,0,3,1.346,3,3v3h-2v2h-2v-2.184   c-1.161-0.414-2-1.514-2-2.816h2c0,0.551,0.448,1,1,1h1v-1c0-0.551-0.448-1-1-1c-1.654,0-3-1.346-3-3v-3h2v-2h2v2.184   c1.161,0.414,2,1.514,2,2.816h-2c0-0.551-0.448-1-1-1h-1v1C47,46.551,47.448,47,48,47z"/><path d="M3.949,55.464C3.337,56.077,3,56.892,3,57.757C3,59.545,4.454,61,6.242,61c0.867,0,1.681-0.337,2.292-0.949L22.586,46   L18,41.414L3.949,55.464z M12.707,52.707l-1.414-1.414l1.343-1.343l1.414,1.414L12.707,52.707z M15.465,49.95l-1.414-1.414   l1.414-1.414l1.414,1.414L15.465,49.95z M19.707,45.707l-1.414,1.414l-1.414-1.414l1.414-1.414L19.707,45.707z"/><path d="M23.607,31h-2.094c1.535,5.982,6.377,10.527,12.477,11.685c0.246-0.647,0.523-1.279,0.853-1.879   C29.558,39.979,25.15,36.168,23.607,31z"/><path d="M48,35c-7.168,0-13,5.832-13,13s5.832,13,13,13s13-5.832,13-13S55.168,35,48,35z M48,59c-6.065,0-11-4.935-11-11   s4.935-11,11-11s11,4.935,11,11S54.065,59,48,59z"/></g></svg>