<svg version="1.1" x="0px" y="0px" viewBox="0 0 128 160" style="enable-background:new 0 0 128 128;" xml:space="preserve"><g><g><g><g><g><path d="M80.939,19.421H46.033c-1.104,0-2-0.896-2-2s0.896-2,2-2h34.906c1.104,0,2,0.896,2,2S82.044,19.421,80.939,19.421z"/></g><g><g><path d="M15.994,13.941c-1.867,0-3.386,1.561-3.386,3.48s1.519,3.48,3.386,3.48s3.386-1.561,3.386-3.48        S17.861,13.941,15.994,13.941z"/></g><g><path d="M29.537,13.941c-1.867,0-3.386,1.561-3.386,3.48s1.519,3.48,3.386,3.48s3.386-1.561,3.386-3.48        S31.403,13.941,29.537,13.941z"/></g></g></g><path d="M93.256,5H3C1.896,5,1,5.896,1,7v82.257c0,1.104,0.896,2,2,2h55.06c1.104,0,2-0.896,2-2s-0.896-2-2-2H5v-57.46h86.256     v23.739c0,1.104,0.896,2,2,2s2-0.896,2-2V7C95.256,5.896,94.36,5,93.256,5z M5,25.797V9h86.256v16.797H5z"/></g><g><g><g><path d="M85.314,88.005c-1.382,0-2.385,1.042-2.385,2.478c0,1.418,0.99,2.448,2.354,2.448c1.404,0,2.385-1.006,2.385-2.448       C87.669,89.024,86.701,88.005,85.314,88.005z"/></g><g><path d="M85.788,69.069c-1.776,0-3.655,0.53-4.787,1.351l-0.311,0.225l1.13,2.962l0.531-0.405       c0.696-0.53,1.82-0.872,2.86-0.872c1.138,0.018,2.493,0.415,2.493,2.202c0,1.278-0.763,2.428-2.08,3.983       c-1.587,1.899-2.281,3.851-2.064,5.793l0.1,1.278h3.435L87.04,84.24c-0.089-1.498,0.411-2.773,1.673-4.266       c1.651-1.959,2.82-3.521,2.82-5.788C91.533,71.826,90.028,69.069,85.788,69.069z"/></g></g></g><path d="M124.835,112.651c-2.076-4.789-5.218-9.078-9.084-12.403l-10.012-8.611c1.668-3.184,2.618-6.801,2.618-10.637    c0-12.682-10.317-23-23-23s-23,10.318-23,23s10.317,23,23,23c3.351,0,6.534-0.726,9.408-2.02l8.521,11.158    c3.135,4.105,7.188,7.446,11.719,9.659c0.274,0.134,0.574,0.203,0.878,0.203c0.043,0,0.086-0.001,0.129-0.004    c4.832-0.312,8.695-4.368,8.986-9.435C125.015,113.249,124.959,112.938,124.835,112.651z M66.356,81c0-10.477,8.523-19,19-19    s19,8.523,19,19s-8.523,19-19,19S66.356,91.477,66.356,81z M116.251,118.948c-3.771-1.94-7.146-4.778-9.786-8.238l-8.171-10.699    c2.001-1.358,3.797-3.049,5.268-4.97l9.582,8.241c3.287,2.827,5.982,6.45,7.818,10.502    C120.624,116.443,118.696,118.551,116.251,118.948C112.48,117.008,118.696,118.551,116.251,118.948    C112.48,117.008,118.696,118.551,116.251,118.948z"/></g></g></svg>