<svg xmlns="http://www.w3.org/2000/svg" xmlns:xlink="http://www.w3.org/1999/xlink" version="1.1" x="0px" y="0px" viewBox="0 0 100 125" enable-background="new 0 0 100 100" xml:space="preserve"><path d="M76,19H58c-2.757,0-5,2.243-5,5v18c0,2.757,2.243,5,5,5h18c2.757,0,5-2.243,5-5V24C81,21.243,78.757,19,76,19z M79,42  c0,1.654-1.346,3-3,3H58c-1.654,0-3-1.346-3-3V24c0-1.654,1.346-3,3-3h18c1.654,0,3,1.346,3,3V42z M76,53H58c-2.757,0-5,2.243-5,5  v18c0,2.757,2.243,5,5,5h18c2.757,0,5-2.243,5-5V58C81,55.243,78.757,53,76,53z M79,76c0,1.654-1.346,3-3,3H58c-1.654,0-3-1.346-3-3  V58c0-1.654,1.346-3,3-3h18c1.654,0,3,1.346,3,3V76z M42,53H24c-2.757,0-5,2.243-5,5v18c0,2.757,2.243,5,5,5h18c2.757,0,5-2.243,5-5  V58C47,55.243,44.757,53,42,53z M45,76c0,1.654-1.346,3-3,3H24c-1.654,0-3-1.346-3-3V58c0-1.654,1.346-3,3-3h18c1.654,0,3,1.346,3,3  V76z M42,19H24c-2.757,0-5,2.243-5,5v18c0,2.757,2.243,5,5,5h18c2.757,0,5-2.243,5-5V24C47,21.243,44.757,19,42,19z M45,42  c0,1.654-1.346,3-3,3H24c-1.654,0-3-1.346-3-3V24c0-1.654,1.346-3,3-3h18c1.654,0,3,1.346,3,3V42z M33,26c-4.411,0-8,3.14-8,7  c0,1.392,0.462,2.721,1.341,3.873l-0.327,1.963c-0.053,0.319,0.051,0.644,0.279,0.872c0.241,0.24,0.578,0.332,0.872,0.278  l2.887-0.481C30.995,39.833,31.986,40,33,40c4.411,0,8-3.14,8-7S37.411,26,33,26z M33,38c-0.863,0-1.702-0.154-2.495-0.458  c-0.115-0.044-0.236-0.066-0.358-0.066c-0.055,0-0.11,0.004-0.165,0.014l-1.766,0.294l0.171-1.028  c0.049-0.295-0.037-0.597-0.233-0.823C27.399,35.069,27,34.055,27,33c0-2.757,2.691-5,6-5s6,2.243,6,5S36.309,38,33,38z M74,27H60  c-0.553,0-1,0.448-1,1v10c0,0.552,0.447,1,1,1h14c0.553,0,1-0.448,1-1V28C75,27.448,74.553,27,74,27z M73,29v0.941l-6,3l-6-3V29H73z   M61,37v-5.941l6,3l6-3V37H61z M37,60h-8c-1.654,0-3,1.346-3,3v8c0,1.654,1.346,3,3,3h8c1.654,0,3-1.346,3-3v-8  C40,61.346,38.654,60,37,60z M29,62h8c0.551,0,1,0.449,1,1v1H28v-1C28,62.449,28.449,62,29,62z M37,72h-8c-0.551,0-1-0.449-1-1v-6  h10v6C38,71.551,37.551,72,37,72z M73.555,66.168l-9-6c-0.307-0.205-0.701-0.225-1.025-0.05C63.203,60.292,63,60.631,63,61v12  c0,0.369,0.203,0.708,0.527,0.882c0.331,0.176,0.727,0.152,1.027-0.05l9-6C73.833,67.646,74,67.334,74,67  S73.833,66.354,73.555,66.168z M65,71.131v-8.263L71.197,67L65,71.131z"/></svg>