<svg xmlns="http://www.w3.org/2000/svg" xmlns:xlink="http://www.w3.org/1999/xlink" version="1.1" x="0px" y="0px" viewBox="0 0 128 160" style="enable-background:new 0 0 128 128;" xml:space="preserve"><title>Miscellaneous 44 solid</title><path d="M6,110h50c1.1,0,2-0.9,2-2s-0.9-2-2-2H6c-1.1,0-2-0.9-2-2V6c0-1.1,0.9-2,2-2h96c1.1,0,2,0.9,2,2v62.3c0,1.1,0.9,2,2,2  s2-0.9,2-2V6c0-3.3-2.7-6-6-6H6C2.7,0,0,2.7,0,6v98C0,107.3,2.7,110,6,110z"/><path d="M52,45.1c0-6-4-11.2-9.8-12.7c-1.1,1.4-2.4,2.7-4,3.6H39c5,0,9,4.1,9,9.1c0,0,0,0,0,0V52c0,1.1,0.9,2,2,2s2-0.9,2-2V45.1z"/><path d="M19.8,32.4C14,33.9,10,39.2,10,45.1V52c0,1.1,0.9,2,2,2s2-0.9,2-2v-6.9c0-5,4-9.1,9-9.1c0,0,0,0,0,0h0.9  C22.3,35.1,20.9,33.9,19.8,32.4z"/><circle cx="31" cy="24" r="10"/><path d="M69,36h0.8c-1.6-0.9-2.9-2.1-4-3.6C60,33.9,56,39.1,56,45.1V52c0,1.1,0.9,2,2,2s2-0.9,2-2v-6.9C60,40.1,64,36,69,36  C69,36,69,36,69,36z"/><path d="M98,45.1c0-6-4-11.2-9.8-12.7c-1.1,1.4-2.4,2.7-4,3.6H85c5,0,9,4.1,9,9.1c0,0,0,0,0,0V52c0,1.1,0.9,2,2,2s2-0.9,2-2V45.1z"/><circle cx="77" cy="24" r="10"/><path d="M10,96c0,1.1,0.9,2,2,2s2-0.9,2-2v-6.9c0-5,4-9.1,9-9.1c0,0,0,0,0,0h0.9c-1.6-0.9-2.9-2.1-4-3.6C14,77.9,10,83.1,10,89.1V96  z"/><path d="M50,98c1.1,0,2-0.9,2-2v-6.9c0-6-4-11.2-9.8-12.7c-1.1,1.4-2.4,2.7-4,3.6H39c5,0,9,4.1,9,9.1c0,0,0,0,0,0V96  C48,97.1,48.9,98,50,98z"/><circle cx="31" cy="68" r="10"/><path d="M88,128c1.1,0,2-0.9,2-2v-6.9c0-5,4-9.1,9-9.1c0,0,0,0,0,0h0.8c-1.6-0.9-2.9-2.1-4-3.6c-5.8,1.5-9.9,6.7-9.8,12.7v6.9  C86,127.1,86.9,128,88,128z"/><path d="M118.2,106.4c-1.1,1.4-2.4,2.7-4,3.6h0.8c5,0,9,4.1,9,9.1c0,0,0,0,0,0v6.9c0,1.1,0.9,2,2,2s2-0.9,2-2v-6.9  C128,113.2,124,107.9,118.2,106.4z"/><circle cx="107" cy="98" r="10"/><path d="M126,0c-1.1,0-2,0.9-2,2v18c0,1.1,0.9,2,2,2s2-0.9,2-2V2C128,0.9,127.1,0,126,0z"/><path d="M120,10V2c0-1.1-0.9-2-2-2s-2,0.9-2,2v8c0,1.1,0.9,2,2,2S120,11.1,120,10z"/></svg>