<svg  version="1.1" x="0px" y="0px" viewBox="0 0 80 100" xml:space="preserve"><path d="M 40 0 C 17.920455 0 0 17.920455 0 40 C 0 62.079545 17.920455 80 40 80 C 62.079545 80 80 62.079545 80 40 C 80 17.920455 62.079545 0 40 0 z M 40 2 C 60.998665 2 78 19.001335 78 40 C 78 60.998665 60.998665 78 40 78 C 19.001334 78 2 60.998665 2 40 C 2 19.001335 19.001334 2 40 2 z M 40 25 C 36.425 25 32.849609 26.375 30.099609 29.125 C 27.499609 31.725 26 35.325391 26 39.025391 C 26 42.725391 27.499609 46.325781 30.099609 48.925781 L 40 58.824219 L 49.900391 48.925781 C 52.500391 46.325781 54 42.725391 54 39.025391 C 54 35.325391 52.500391 31.725 49.900391 29.125 C 47.150391 26.375 43.575 25 40 25 z M 40.011719 31.824219 C 41.874219 31.824219 43.749219 32.525781 45.199219 33.925781 C 46.599219 35.325781 47.300781 37.125391 47.300781 39.025391 C 47.300781 40.925391 46.499609 42.825 45.099609 44.125 C 43.699609 45.525 41.8 46.224609 40 46.224609 C 38.2 46.224609 36.300391 45.525 34.900391 44.125 C 33.500391 42.725 32.800781 40.925391 32.800781 39.025391 C 32.800781 37.125391 33.600391 35.225781 34.900391 33.925781 C 36.300391 32.525781 38.149219 31.824219 40.011719 31.824219 z M 40 33.724609 C 38.7 33.724609 37.300781 34.224609 36.300781 35.224609 C 35.300781 36.224609 34.800781 37.525781 34.800781 38.925781 C 34.800781 40.325781 35.300781 41.625 36.300781 42.625 C 38.300781 44.625 41.699219 44.625 43.699219 42.625 C 44.699219 41.625 45.199219 40.325781 45.199219 38.925781 C 45.199219 37.525781 44.699219 36.224609 43.699219 35.224609 C 42.699219 34.324609 41.3 33.724609 40 33.724609 z " /></svg>