<svg version="1.1" viewBox="0 0 26.458 33.0725" x="0px" y="0px"><g transform="translate(0 -270.54)"><path d="m13.265 270.54c-0.81285-2e-3 -1.6255 0.0719-2.4283 0.22009a0.32992 0.32992 0 0 0-0.26984 0.30875l-0.17912 3.946c-0.44375 0.14408-0.87478 0.32154-1.2917 0.53092l-2.8852-2.6894a0.32992 0.32992 0 0 0-0.41004-0.0322c-1.3369 0.90656-2.4966 2.0502-3.4221 3.3741a0.32992 0.32992 0 0 0 0.0263 0.41029l2.6504 2.9172c-0.20383 0.39569-0.37819 0.80559-0.52292 1.2265l-3.9442 0.0866a0.32992 0.32992 0 0 0-0.31545 0.26314c-0.32733 1.5866-0.36055 3.219-0.09845 4.8176a0.32992 0.32992 0 0 0 0.30488 0.27653l3.9411 0.24278c0.14058 0.4624 0.31594 0.91236 0.52704 1.3471l-2.7187 2.8667a0.32992 0.32992 0 0 0-0.03608 0.409c0.9011 1.367 2.0478 2.5549 3.3821 3.5038a0.32992 0.32992 0 0 0 0.41005-0.0224l2.9563-2.6252c0.44936 0.23511 0.91685 0.43215 1.3987 0.59045l0.15695 3.9509a0.32992 0.32992 0 0 0 0.2688 0.31159c1.6045 0.30217 3.2513 0.3043 4.8568 8e-3a0.32992 0.32992 0 0 0 0.26958-0.30875l0.17938-3.946c0.44344-0.14407 0.87506-0.32059 1.2917-0.52988l2.8842 2.6894a0.32992 0.32992 0 0 0 0.41004 0.0322c1.3371-0.90654 2.4973-2.0501 3.4228-3.3741a0.32992 0.32992 0 0 0-0.02629-0.41107l-2.6504-2.9182c0.20352-0.39525 0.37863-0.80404 0.52318-1.2244l3.9429-0.0869a0.32992 0.32992 0 0 0 0.31571-0.26287c0.32727-1.5867 0.36064-3.22 0.09845-4.8187a0.32992 0.32992 0 0 0-0.30489-0.27577l-3.9403-0.24252c-0.1405-0.46244-0.31679-0.9123-0.52782-1.3471l2.7187-2.8667a0.32992 0.32992 0 0 0 0.03582-0.40927c-0.90098-1.3671-2.0476-2.5547-3.3818-3.5038a0.32992 0.32992 0 0 0-0.41004 0.0224l-2.9553 2.6252c-0.44978-0.23543-0.91765-0.4338-1.4-0.59225l-0.1567-3.9499a0.32992 0.32992 0 0 0-0.26881-0.31081c-0.80219-0.15115-1.6146-0.22737-2.4275-0.22886zm-7.98e-4 0.65925-2.64e-4 2.7e-4c0.68624 9.9e-4 1.3703 0.0793 2.0494 0.19277l0.15206 3.8174a0.32992 0.32992 0 0 0 0.05953 0.23195 0.32992 0.32992 0 0 0 0.0028 3e-3 0.32992 0.32992 0 0 0 0.01366 0.0186 0.32992 0.32992 0 0 0 0.0052 6e-3 0.32992 0.32992 0 0 0 0.0039 5e-3 0.32992 0.32992 0 0 0 0.01753 0.0175 0.32992 0.32992 0 0 0 0.15979 0.0856c0.58864 0.17818 1.1576 0.41632 1.6948 0.71596a0.32992 0.32992 0 0 0 0.37988-0.041l2.895-2.5716c1.1094 0.82403 2.0732 1.8222 2.8571 2.9602l-2.6651 2.8102a0.32992 0.32992 0 0 0-0.05361 0.37911c0.27687 0.53386 0.49701 1.0953 0.65642 1.6752a0.32992 0.32992 0 0 0 0.29819 0.24175l3.8612 0.23762c0.19303 1.3512 0.16534 2.7206-0.08273 4.0628l-3.8682 0.0858a0.32992 0.32992 0 0 0-0.30772 0.23092c-0.16956 0.53947-0.39121 1.0607-0.66338 1.5564a0.32992 0.32992 0 0 0 0.04485 0.38091l2.5968 2.86c-0.80238 1.0988-1.774 2.0577-2.8842 2.8442l-2.8277-2.638a0.32992 0.32992 0 0 0-0.38092-0.0487c-0.51606 0.27667-1.0593 0.4994-1.6208 0.66544a0.32992 0.32992 0 0 0-0.23582 0.30179l-0.17628 3.8671c-1.3595 0.22226-2.7422 0.22016-4.1009-7e-3l-0.15103-3.8164a0.32992 0.32992 0 0 0-0.04665-0.21134 0.32992 0.32992 0 0 0-0.01753-0.0273 0.32992 0.32992 0 0 0-0.0041-5e-3 0.32992 0.32992 0 0 0-0.0116-0.0147 0.32992 0.32992 0 0 0-0.17912-0.10901c-0.58964-0.17816-1.1599-0.41595-1.6979-0.71596a0.32992 0.32992 0 0 0-0.37988 0.041l-2.895 2.5713c-1.1097-0.82404-2.0728-1.8228-2.8569-2.961l2.6651-2.8092a0.32992 0.32992 0 0 0 0.053349-0.37911c-0.27699-0.53383-0.4969-1.0954-0.65642-1.6752a0.32992 0.32992 0 0 0-0.29793-0.24174l-3.8623-0.23762c-0.19301-1.3514-0.16451-2.7214 0.08376-4.0638l3.8679-0.0848a0.32992 0.32992 0 0 0 0.30695-0.23092c0.16957-0.53954 0.39192-1.0617 0.66415-1.5574a0.32992 0.32992 0 0 0-0.044851-0.37989l-2.5979-2.86c0.80231-1.0988 1.7751-2.0577 2.8852-2.8442l2.8277 2.6368a0.32992 0.32992 0 0 0 0.38092 0.0497c0.51603-0.27659 1.0586-0.49947 1.62-0.66544a0.32992 0.32992 0 0 0 0.23659-0.30076l0.17626-3.8691c0.67957-0.11103 1.3642-0.18735 2.0504-0.18608zm-0.1134 4.6542c-2.6744 0.0302-5.2707 1.4139-6.7323 3.8803-2.2272 3.7583-0.9834 8.6202 2.7749 10.847 3.7583 2.2272 8.6194 0.98288 10.847-2.7754s0.98443-8.6196-2.7739-10.847c-1.2919-0.76559-2.7144-1.1212-4.1153-1.1054zm0.0046 0.65642c1.2837-0.0138 2.5879 0.3131 3.7744 1.0162 3.4516 2.0454 4.5884 6.4919 2.543 9.9435-2.0454 3.4516-6.4917 4.5896-9.9432 2.5442-3.4516-2.0454-4.5889-6.4924-2.5435-9.944 1.3423-2.2651 3.7186-3.5336 6.1694-3.5599zm0.04613 1.6953a0.32992 0.32992 0 0 0-0.32525 0.33402v1.3134c-0.58898 0.0585-1.1227 0.25992-1.5389 0.57163-0.49094 0.36771-0.82358 0.90332-0.83296 1.5072-5e-6 3.9e-4 6e-6 5e-4 0 1e-3a0.32992 0.32992 0 0 0-0.0011 0.025 0.32992 0.32992 0 0 0 0.0015 0.0412c0.01471 0.59763 0.34565 1.1274 0.83245 1.492 0.41618 0.3117 0.94989 0.51311 1.5389 0.57163v2.9249c-0.45056-0.0563-0.84929-0.21569-1.1435-0.43607-0.36914-0.27649-0.56983-0.62781-0.56983-1.0044a0.32992 0.32992 0 1 0-0.65951 0c0 0.61457 0.33598 1.1594 0.83399 1.5324 0.41617 0.31171 0.94988 0.51367 1.5389 0.5724v1.3425a0.32992 0.32992 0 1 0 0.65952 0v-1.3371c0.60755-0.0524 1.1587-0.25796 1.5858-0.57782 0.06225-0.0466 0.12202-0.0961 0.17886-0.14793 0.3979-0.36255 0.65488-0.84675 0.65488-1.3845 0-0.0384-0.0016-0.0763-0.0041-0.11417-0.0387-0.56767-0.36298-1.0693-0.82987-1.419-0.42704-0.31985-0.97822-0.52481-1.5858-0.57705v-2.9246c0.46942 0.0509 0.88523 0.2134 1.1894 0.44122 0.36914 0.27648 0.56983 0.62786 0.56983 1.0044a0.33021 0.33021 0 1 0 0.66029 0c0-0.61454-0.33572-1.1602-0.83374-1.5332-0.42704-0.31985-0.97822-0.52481-1.5858-0.57704v-1.3079a0.32992 0.32992 0 0 0-0.33366-0.33402zm-0.32525 2.3118v2.8816c-0.45056-0.0563-0.8493-0.2157-1.1435-0.43607-0.36794-0.27558-0.56828-0.62661-0.56957-1.0018a0.32992 0.32992 0 0 0-2.64e-4 -3e-3c0-0.0471 3e-3 -0.0938 0.0093-0.13994 0.04349-0.32325 0.23755-0.62249 0.56055-0.86441 0.29423-0.22038 0.69296-0.37973 1.1435-0.43607zm0.65952 3.5834c0.46942 0.0509 0.88522 0.2134 1.1894 0.44122 0.323 0.24192 0.51709 0.54175 0.56055 0.86518 0.0062 0.0462 0.0093 0.0929 0.0093 0.13994 0 0.37654-0.20069 0.72786-0.56983 1.0044-0.30417 0.22783-0.71997 0.39036-1.1894 0.44122z" color="#000000" color-rendering="auto" dominant-baseline="auto" image-rendering="auto" shape-rendering="auto" solid-color="#000000" style="font-feature-settings:normal;font-variant-alternates:normal;font-variant-caps:normal;font-variant-ligatures:normal;font-variant-numeric:normal;font-variant-position:normal;isolation:auto;mix-blend-mode:normal;paint-order:stroke fill markers;shape-padding:0;text-decoration-color:#000000;text-decoration-line:none;text-decoration-style:solid;text-indent:0;text-orientation:mixed;text-transform:none;white-space:normal;"/></g><text x="0" y="41.458" fill="#000000" font-size="5px" font-weight="bold" font-family="'Helvetica Neue', Helvetica, Arial-Unicode, Arial, Sans-serif">Created by Astoe Design</text><text x="0" y="46.458" fill="#000000" font-size="5px" font-weight="bold" font-family="'Helvetica Neue', Helvetica, Arial-Unicode, Arial, Sans-serif">from the Noun Project</text></svg>