<svg xmlns="http://www.w3.org/2000/svg" xmlns:xlink="http://www.w3.org/1999/xlink" version="1.1" x="0px" y="0px" viewBox="0 0 70 87.5" style="enable-background:new 0 0 70 70;" xml:space="preserve"><path d="M67.0117188,21.8989258C63.3354492,17.0424805,56.3452148,8.449707,50.8286133,5.4594727  c-1.5371094-0.8325195-3.4638672-0.7871094-5.0307617,0.1186523l-0.1391602,0.0805664  c-2.8300781,1.637207-7.5722656,4.3740234-11.6118164,4.0761719c-4.3330078-0.3212891-9.7163086-4.0712891-9.8447266-4.1567383  c-1.5668945-0.9057617-3.4936523-0.9511719-5.0307617-0.1186523c-0.9366455,0.5076904-1.9173584,1.1867065-2.9155273,1.9716797  c-0.0015869,0.0015259-0.0037842,0.0018921-0.0053711,0.003418c-0.0004272,0.0004272-0.0005493,0.0009766-0.0009766,0.0014038  c-3.3853149,2.6638184-6.986145,6.6478271-9.8945312,10.1901855c-0.0036621,0.00354-0.008606,0.0045166-0.012207,0.0081177  c-0.0097046,0.0097046-0.0126953,0.0229492-0.0219116,0.032959c-1.2698975,1.5479736-2.4066772,3.0085449-3.3325806,4.2316895  c-1.4038086,1.8544922-1.2949219,4.4628906,0.2587891,6.2021484l6.1352539,6.8686523  c0.9589844,1.074707,2.3442383,1.6621094,3.7744141,1.6313477c1.4394531-0.0375977,2.7827148-0.7026367,3.6845703-1.8251953  l1.4365234-1.7871094v25.6293945c0,2.4438477,1.6376953,4.5634766,3.9824219,5.1542969  c2.5400391,0.6401367,6.4780273,1.3632812,11.3037109,1.3632812c4.1884766,0,9.0458984-0.5454102,14.2338867-2.1630859  c2.2451172-0.7006836,3.753418-2.7504883,3.753418-5.1010742V32.7761841l1.6074219,1.9996948  c0.9018555,1.1225586,2.2451172,1.7875977,3.6845703,1.8251953c0.0429688,0.0009766,0.0854492,0.0014648,0.1279297,0.0014648  c1.3930664,0,2.7158203-0.5908203,3.6464844-1.6328125l6.1352539-6.8686523  C68.3066406,26.3618164,68.4155273,23.753418,67.0117188,21.8989258z M20.1245117,7.2182617  c0.9287109-0.5039062,2.1069336-0.4692383,3.0014648,0.043457c0.2382812,0.1674805,5.8852539,4.1054688,10.7734375,4.4672852  c4.6494141,0.3442383,9.7304688-2.5869141,12.7602539-4.3388672l0.1391602-0.0805664  c0.9692383-0.5610352,2.1474609-0.5942383,3.0766602-0.0913086c0.230957,0.1251831,0.4697266,0.2766113,0.7072144,0.4239502  c-4.6617432,4.87677-9.7766113,7.4092407-15.2199097,7.5238037c-7.9593506,0.1888428-14.5714111-4.9232788-16.8474731-6.9241333  C19.0643921,7.8543701,19.6052246,7.4996948,20.1245117,7.2182617z M15.2827148,33.5229492  c-0.5332031,0.6635742-1.3271484,1.0566406-2.1777344,1.0786133c-0.8496094,0.034668-1.6645508-0.3291016-2.2314453-0.9638672  L4.7382812,26.769043c-0.918457-1.0283203-0.9838867-2.5688477-0.1552734-3.6630859  c0.6490479-0.8574219,1.5299683-1.994812,2.5537109-3.2636719l10.6123657,10.6123657L15.2827148,33.5229492z M47.2021484,61.0634766  c-10.6967773,3.3359375-19.9116211,1.9145508-24.453125,0.7695312c-1.4550781-0.3666992-2.4711914-1.6884766-2.4711914-3.2148438  V30.5439453c0-0.0122681-0.0065308-0.0224609-0.006958-0.0346069l1.4923096-1.8565063  c0.3461914-0.4301758,0.277832-1.0600586-0.152832-1.4057617c-0.4291992-0.3447266-1.0595703-0.2773438-1.4057617,0.152832  l-1.1951904,1.4869385L8.4098511,18.2872925c2.4898682-2.9873657,5.5726929-6.3922729,8.4835815-8.8065796  c2.1146851,1.9415283,9.1268921,7.6896973,18.0743408,7.6896973c0.1396484,0,0.2802734-0.0014648,0.4204102-0.0043945  c6.0866089-0.1233521,11.7512207-2.9437866,16.852417-8.3707275c3.1532593,2.4199219,6.6052246,6.2001343,9.3432617,9.4846191  L50.9845581,28.8792114l-1.1891479-1.4793091c-0.3452148-0.4301758-0.9755859-0.4975586-1.4057617-0.152832  c-0.4306641,0.3457031-0.4990234,0.9755859-0.152832,1.4057617l1.3144531,1.6352539V57.871582  C49.5512695,59.3193359,48.5854492,60.6318359,47.2021484,61.0634766z M65.2617188,26.769043l-6.1352539,6.8686523  c-0.5668945,0.6342773-1.3666992,0.9863281-2.2314453,0.9638672c-0.8505859-0.0219727-1.6445312-0.4150391-2.1777344-1.0786133  l-2.4724731-3.0758667l10.6123657-10.6123657c1.0264282,1.2719727,1.9094849,2.4121094,2.5598145,3.2712402  C66.2456055,24.2001953,66.1801758,25.7407227,65.2617188,26.769043z"/><path d="M42.4619141,47.112793l-5.0458984,0.0458984l-1.6030273-4.7856445  c-0.1367188-0.4077148-0.5185547-0.6821289-0.9482422-0.6821289c-0.0029297,0-0.0058594,0-0.0092773,0  c-0.4331055,0.0039062-0.8144531,0.2866211-0.9443359,0.699707l-1.5161133,4.8134766l-5.0463867,0.0454102  c-0.4331055,0.0039062-0.8144531,0.2866211-0.9443359,0.699707c-0.1303711,0.4130859,0.0205078,0.8632812,0.3730469,1.1147461  l4.1098633,2.9291992l-1.515625,4.8134766c-0.1303711,0.4130859,0.0205078,0.8632812,0.3730469,1.1147461  c0.1738281,0.1235352,0.3774414,0.1855469,0.5805664,0.1855469c0.2094727,0,0.418457-0.0654297,0.5952148-0.1962891  l4.0551758-3.003418l4.109375,2.9291992c0.3535156,0.2514648,0.828125,0.2470703,1.1757812-0.0107422  c0.3481445-0.2578125,0.4907227-0.7104492,0.3530273-1.1210938l-1.6025391-4.7851562l4.0551758-3.0029297  c0.3481445-0.2578125,0.4907227-0.7104492,0.3530273-1.121582S42.9121094,47.1098633,42.4619141,47.112793z M37.2368164,50.7446289  c-0.3481445,0.2578125-0.4907227,0.7104492-0.3530273,1.1210938l0.855957,2.5556641l-2.1948242-1.5644531  c-0.3525391-0.2504883-0.8271484-0.246582-1.1757812,0.0107422l-2.1655273,1.6040039l0.809082-2.5708008  c0.1303711-0.4130859-0.0205078-0.8632812-0.3730469-1.1147461l-2.1953125-1.5644531l2.6958008-0.0244141  c0.4331055-0.0039062,0.8144531-0.2866211,0.9443359-0.699707l0.8095703-2.5708008l0.8564453,2.5561523  c0.1367188,0.4077148,0.5185547,0.6821289,0.9482422,0.6821289c0.0029297,0,0.0058594,0,0.0092773,0l2.6948242-0.0244141  L37.2368164,50.7446289z"/><path d="M28.4868164,29.4282227h13.984375c0.5522461,0,1-0.4477539,1-1s-0.4477539-1-1-1h-13.984375c-0.5522461,0-1,0.4477539-1,1  S27.9345703,29.4282227,28.4868164,29.4282227z"/></svg>